<svg width="16" height="16" viewBox="0 0 16 16" fill="none" xmlns="http://www.w3.org/2000/svg">
  <path opacity="0.5" fill-rule="evenodd" clip-rule="evenodd"
    d="M13.0909 2.90918L10.7769 8.0001L13.0909 13.091L8.00002 10.777L2.90912 13.091L5.22317 8.0001L2.90912 2.90918L8.00002 5.22323L13.0909 2.90918ZM8.00002 10.0001C9.10459 10.0001 10 9.10466 10 8.00009C10 6.89552 9.10459 6.00009 8.00002 6.00009C6.89545 6.00009 6.00002 6.89552 6.00002 8.00009C6.00002 9.10466 6.89545 10.0001 8.00002 10.0001Z"
    fill="#666666" />
  <path fill-rule="evenodd" clip-rule="evenodd"
    d="M8 0L10.1818 5.81818L16 8L10.1818 10.1818L8 16L5.81818 10.1818L0 8L5.81818 5.81818L8 0ZM8 10C9.10457 10 10 9.10457 10 8C10 6.89543 9.10457 6 8 6C6.89543 6 6 6.89543 6 8C6 9.10457 6.89543 10 8 10Z"
    fill="#666666" />
</svg>