<svg width="16" height="16" viewBox="0 0 16 16" fill="none" xmlns="http://www.w3.org/2000/svg">
  <path fill-rule="evenodd" clip-rule="evenodd"
    d="M12.2426 11.2426C13.0818 10.4035 13.6532 9.33443 13.8847 8.17054C14.1162 7.00665 13.9974 5.80025 13.5433 4.7039C13.0892 3.60754 12.3201 2.67047 11.3334 2.01118C10.3467 1.35189 9.18669 1 8 1C6.81331 1 5.65328 1.35189 4.66658 2.01118C3.67989 2.67047 2.91085 3.60754 2.45673 4.7039C2.0026 5.80025 1.88378 7.00665 2.11529 8.17054C2.3468 9.33443 2.91825 10.4035 3.75736 11.2426L3.76 11.24L8 15.48L12.24 11.24L12.2426 11.2426ZM8 9.5C9.38071 9.5 10.5 8.38071 10.5 7C10.5 5.61929 9.38071 4.5 8 4.5C6.61929 4.5 5.5 5.61929 5.5 7C5.5 8.38071 6.61929 9.5 8 9.5Z"
    fill="black" fill-opacity="0.6" />
</svg>