<svg width="16" height="16" viewBox="0 0 16 16" fill="none" xmlns="http://www.w3.org/2000/svg">
  <path fill-rule="evenodd" clip-rule="evenodd"
    d="M12.9946 4L5.99463 0L5.99463 3.00002C2.68878 3.00924 0.0117188 5.69199 0.0117188 9C0.0117188 9.85105 0.188908 10.6607 0.508408 11.3941L2.25769 10.3842C2.0986 9.95285 2.01172 9.48657 2.01172 9C2.01172 6.79656 3.79335 5.00924 5.99463 5.00004V8L12.9946 4ZM11.6263 7.28463L13.3624 6.28229L15.0022 5.33554L16.0022 7.06759L13.9646 8.24403C13.9957 8.49164 14.0117 8.74395 14.0117 9C14.0117 12.3137 11.3254 15 8.01172 15H6.01172C5.05341 15 4.14757 14.7753 3.34401 14.3758L1 15.7291L0 13.9971L1.60404 13.071L3.40299 12.0323L11.6263 7.28463ZM5.74242 12.9911L11.9937 9.38188C11.8015 11.4119 10.0921 13 8.01172 13H6.01172C5.92122 13 5.83142 12.997 5.74242 12.9911Z"
    fill="black" fill-opacity="0.6" />
</svg>