<svg width="16" height="16" viewBox="0 0 16 16" fill="none" xmlns="http://www.w3.org/2000/svg">
  <path fill-rule="evenodd" clip-rule="evenodd"
    d="M5 3.58583L2.42752 1.01335C2.037 0.622827 1.40383 0.622827 1.01331 1.01335C0.622785 1.40388 0.622786 2.03704 1.01331 2.42756L3.58575 5H5V3.58583ZM5 12.4142L2.42696 14.9872C2.03643 15.3778 1.40327 15.3778 1.01274 14.9872C0.622217 14.5967 0.622218 13.9635 1.01274 13.573L3.58576 11H5V12.4142ZM12.4142 11L14.9991 13.585C15.3896 13.9755 15.3896 14.6086 14.9991 14.9992C14.6086 15.3897 13.9754 15.3897 13.5849 14.9992L11 12.4143V11H12.4142ZM11 3.58576L13.5884 0.997361C13.9789 0.606837 14.6121 0.606837 15.0026 0.997361C15.3931 1.38789 15.3931 2.02105 15.0026 2.41157L12.4142 5H11V3.58576Z"
    fill="black" fill-opacity="0.6" />
  <path fill-rule="evenodd" clip-rule="evenodd"
    d="M11 1V5H15V7H10C9.44771 7 9 6.55229 9 6V1H11ZM7 1V6C7 6.55229 6.55229 7 6 7H1V5H5V1H7ZM7 15V10C7 9.44772 6.55229 9 6 9H1V11H5V15H7ZM15 9H10C9.44772 9 9 9.44771 9 10V15H11V11H15V9Z"
    fill="black" fill-opacity="0.6" />
</svg>