<svg width="16" height="16" viewBox="0 0 16 16" fill="none" xmlns="http://www.w3.org/2000/svg">
  <path fill-rule="evenodd" clip-rule="evenodd"
    d="M6 0H2C0.895431 0 0 0.895431 0 2V6H2V3.4142L4.55382 5.96802C4.89799 5.38559 5.3856 4.89798 5.96804 4.55381L3.41423 2H6V0ZM10.032 4.55381C10.6144 4.89798 11.102 5.38559 11.4462 5.96802L14 3.4142V6H16V2C16 0.895431 15.1046 0 14 0H10V2H12.5858L10.032 4.55381ZM11.4462 10.032C11.102 10.6144 10.6144 11.102 10.032 11.4462L12.5858 14H10V16H14C15.1046 16 16 15.1046 16 14V10H14V12.5858L11.4462 10.032ZM5.96802 11.4462C5.38559 11.102 4.89798 10.6144 4.55381 10.032L2 12.5858V10H0V14C0 15.1046 0.895431 16 2 16H6V14H3.4142L5.96802 11.4462Z"
    fill="black" fill-opacity="0.6" />
</svg>