<svg width="16" height="16" viewBox="0 0 16 16" fill="none" xmlns="http://www.w3.org/2000/svg">
    <path fill-rule="evenodd" clip-rule="evenodd"
        d="M0 8C0 5.23858 2.23858 3 5 3H7V7L11 7C11.5523 7 12 7.44772 12 8C12 8.03411 11.9983 8.06782 11.995 8.10105C11.2578 8.25147 10.5797 8.56409 9.99951 9H7V13H5C2.23858 13 0 10.7614 0 8ZM15.9126 8.93548C15.97 8.63244 16 8.31972 16 8C16 5.23858 13.7614 3 11 3H9V5L11 5C12.6569 5 14 6.34315 14 8C14 8.03336 13.9995 8.06659 13.9984 8.09969C14.7012 8.24211 15.3505 8.53192 15.9126 8.93548ZM6.99998 4.99999V7H5C4.44772 7 4 7.44771 4 8C4 8.55228 4.44772 9 5 9H6.99998V11H4.99998C3.34313 11 1.99998 9.65685 1.99998 7.99999C1.99998 6.34314 3.34313 4.99999 4.99998 4.99999H6.99998Z"
        fill="black" fill-opacity="0.3" />
    <path fill-rule="evenodd" clip-rule="evenodd" d="M14 14V15V16H12V15V14H10V12L12 12V10H14V12L16 12V14H14Z"
        fill="black" fill-opacity="0.3" />
</svg>