<svg width="16" height="16" viewBox="0 0 16 16" fill="none" xmlns="http://www.w3.org/2000/svg">
    <g clip-path="url(#clip0_20908_12316)">
        <path fill-rule="evenodd" clip-rule="evenodd"
            d="M0 3C0 1.89543 0.895431 1 2 1H6C7.10457 1 8 1.89543 8 3H14C15.1046 3 16 3.89543 16 5V5.67363C18.3649 6.79709 20 9.2076 20 12C20 15.866 16.866 19 13 19C10.2076 19 7.79709 17.3649 6.67363 15H2C0.89543 15 0 14.1046 0 13V7H8.10102C8.49 6.61882 8.92328 6.28268 9.39241 6H0V3ZM13 17C11.3642 17 9.91184 16.2144 8.99963 15C8.37194 14.1643 8 13.1256 8 12C8 9.23858 10.2386 7 13 7C14.1256 7 15.1643 7.37194 16 7.99963C17.2144 8.91184 18 10.3642 18 12C18 14.7614 15.7614 17 13 17ZM14 14V13H16V11H14V9H12V11H10V13H12V14V15H14V14Z"
            fill="black" />
    </g>
    <defs>
        <clipPath id="clip0_20908_12316">
            <rect width="16" height="15" fill="white" />
        </clipPath>
    </defs>
</svg>