<svg width="16" height="16" viewBox="0 0 16 16" fill="none" xmlns="http://www.w3.org/2000/svg">
    <path fill-rule="evenodd" clip-rule="evenodd"
        d="M10 2C10 2.02997 9.99934 2.05979 9.99804 2.08944C11.7151 2.46727 13 3.9978 13 5.82843V6.64298C13 8.15215 13.5995 9.59952 14.6667 10.6667C14.8801 10.8801 15 11.1696 15 11.4714V12C15 12.5523 14.5523 13 14 13H2C1.44772 13 1 12.5523 1 12V11.4714C1 11.1696 1.1199 10.8801 1.33333 10.6667C2.40048 9.59952 3 8.15215 3 6.64298V5.82843C3 3.9978 4.28486 2.46727 6.00196 2.08944C6.00066 2.05979 6 2.02997 6 2C6 0.895431 6.89543 0 8 0C9.10457 0 10 0.895431 10 2ZM9.84776 14.7654C9.94827 14.5227 10 14.2626 10 14H8H6C6 14.2626 6.05173 14.5227 6.15224 14.7654C6.25275 15.008 6.40007 15.2285 6.58579 15.4142C6.7715 15.5999 6.99198 15.7472 7.23463 15.8478C7.47728 15.9483 7.73736 16 8 16C8.26264 16 8.52272 15.9483 8.76537 15.8478C9.00802 15.7472 9.2285 15.5999 9.41421 15.4142C9.59993 15.2285 9.74725 15.008 9.84776 14.7654Z"
        fill="black" />
</svg>