<svg width="16" height="16" viewBox="0 0 16 16" fill="none" xmlns="http://www.w3.org/2000/svg">
    <path fill-rule="evenodd" clip-rule="evenodd"
        d="M10.7031 5.29813C10.3126 4.90761 9.67944 4.90761 9.28892 5.29813L7.99609 6.59096L6.70718 5.30204C6.31665 4.91151 5.68349 4.91151 5.29296 5.30204C4.90244 5.69256 4.90244 6.32573 5.29296 6.71625L6.58188 8.00517L5.29298 9.29408C4.90245 9.6846 4.90245 10.3178 5.29298 10.7083C5.6835 11.0988 6.31666 11.0988 6.70719 10.7083L7.99609 9.41938L9.28695 10.7102C9.67748 11.1008 10.3106 11.1008 10.7012 10.7102C11.0917 10.3197 11.0917 9.68655 10.7012 9.29603L9.41031 8.00517L10.7031 6.71235C11.0937 6.32182 11.0937 5.68866 10.7031 5.29813Z"
        fill="black" />
    <circle cx="8" cy="8" r="7" stroke="black" stroke-width="2" />
</svg>