<svg width="18" height="18" viewBox="0 0 24 24" fill="none" xmlns="http://www.w3.org/2000/svg">
    <path
        d="M3.5 18.5a1 1 0 0 1 0-2h3.5v-1.5h-3.5a1 1 0 0 1-1-1v-7a1 1 0 0 1 1-1h10a1 1 0 0 1 1 1v7a1 1 0 0 1-1 1h-3.5v1.5h3.5a1 1 0 0 1 0 2ZM4 14a.5.5 0 0 1-.5-.5v-6a.5.5 0 0 1 .5-.5h9a.5.5 0 0 1 .5.5v6a.5.5 0 0 1-.5.5ZM17.3 18.5a1 1 0 0 1-1-1v-10.5a1 1 0 0 1 1-1h3a1 1 0 0 1 1 1v10.5a1 1 0 0 1-1 1ZM17.3 9a.3.3 0 1 1 0-.6h3a.3.3 0 1 1 0 .6ZM18.8 16a.7.7 0 1 1 0-1.4.7.7 0 1 1 0 1.4Z"
        fill="#3e515fe5" fill-rule="evenodd" />
</svg>