<svg width="16" height="16" viewBox="0 0 16 16" fill="none" xmlns="http://www.w3.org/2000/svg">
    <path fill-rule="evenodd" clip-rule="evenodd"
        d="M5 3C2.23858 3 0 5.23858 0 8C0 10.7614 2.23858 13 5 13H7V9H11C11.5523 9 12 8.55228 12 8C12 7.44772 11.5523 7 11 7L7 7V3H5ZM6.99998 7V4.99999H4.99998C3.34313 4.99999 1.99998 6.34314 1.99998 7.99999C1.99998 9.65685 3.34313 11 4.99998 11H6.99998V9H5C4.44772 9 4 8.55228 4 8C4 7.44771 4.44772 7 5 7H6.99998ZM11 13C13.7614 13 16 10.7614 16 8C16 5.23858 13.7614 3 11 3H9V5L11 5C12.6569 5 14 6.34315 14 8C14 9.65685 12.6569 11 11 11H9V13H11Z"
        fill="#9F24EA" />
</svg>