<svg width="100" height="67" viewBox="0 0 100 67" fill="none" xmlns="http://www.w3.org/2000/svg">
    <path
        d="M84.3624 5.61115C77.858 2.95206 70.9914 1.06562 63.938 0C62.9728 1.54072 62.0995 3.12592 61.3217 4.74896C53.8084 3.738 46.1679 3.738 38.6546 4.74896C37.8764 3.12609 37.0031 1.54091 36.0383 0C28.9804 1.07461 22.1092 2.96554 15.5983 5.62505C2.67241 22.7018 -0.831596 39.3545 0.920406 55.7708C8.49013 60.7649 16.9628 64.563 25.9701 67C27.9983 64.5642 29.793 61.9801 31.3352 59.2751C28.4061 58.2983 25.579 57.093 22.8866 55.6734C23.5952 55.2145 24.2882 54.7417 24.9579 54.2828C32.792 57.5726 41.3426 59.2783 49.9998 59.2783C58.657 59.2783 67.2076 57.5726 75.0418 54.2828C75.7192 54.7765 76.4122 55.2493 77.113 55.6734C74.4155 57.0953 71.5832 58.3029 68.6489 59.2821C70.1892 61.9858 71.984 64.5677 74.0139 67C83.029 64.5728 91.5081 60.7765 99.0792 55.7777C101.135 36.7401 95.5675 20.2405 84.3624 5.61115ZM33.5544 45.6749C28.6721 45.6749 24.6386 41.7186 24.6386 36.8514C24.6386 31.9842 28.532 27.9932 33.5388 27.9932C38.5456 27.9932 42.548 31.9842 42.4623 36.8514C42.3767 41.7186 38.5301 45.6749 33.5544 45.6749ZM66.4453 45.6749C61.5552 45.6749 57.5373 41.7186 57.5373 36.8514C57.5373 31.9842 61.4307 27.9932 66.4453 27.9932C71.4599 27.9932 75.4311 31.9842 75.3455 36.8514C75.2598 41.7186 71.421 45.6749 66.4453 45.6749Z"
        fill="white" />
</svg>