<svg width="16" height="16" viewBox="0 0 16 16" fill="none" xmlns="http://www.w3.org/2000/svg">
	<path fill-rule="evenodd" clip-rule="evenodd"
		d="M7.976 0C3.566 0 0 3.592 0 8.035c0 3.552 2.285 6.559 5.454 7.623 .396.08 .541-.173 .541-.386 0-.186-.013-.825-.013-1.49-2.219 .479-2.681-.958-2.681-.958-.357-.931-.885-1.171-.885-1.171-.726-.492.053-.492.053-.492 .806.053 1.228 .825 1.228 .825 .713 1.224 1.862 .878 2.324 .665.066-.519 .277-.878 .502-1.078-1.77-.186-3.632-.878-3.632-3.965 0-.878 .317-1.596 .819-2.155-.079-.2-.357-1.024.079-2.129 0 0 .673-.213 2.192 .825a7.669 7.669 0 0 1 1.994-.266c.673 0 1.36.093 1.994 .266 1.519-1.038 2.192-.825 2.192-.825 .436 1.104.158 1.929.079 2.129 .515 .559 .819 1.277 .819 2.155 0 3.087-1.862 3.765-3.645 3.965 .291 .253 .541 .732 .541 1.49 0 1.078-.013 1.942-.013 2.208 0 .213.145 .466 .541 .386 3.169-1.064 5.454-4.071 5.454-7.623C15.952 3.592 12.374 0 7.976 0z"
		fill="black" />
</svg>