<svg width="16" height="16" viewBox="0 0 16 16" fill="none" xmlns="http://www.w3.org/2000/svg">
    <path fill-rule="evenodd" clip-rule="evenodd"
        d="M13 7.5H3V15H6.5V12.5C6.5 11.6716 7.17157 11 8 11C8.82843 11 9.5 11.6716 9.5 12.5V15H13V7.5Z" fill="black" />
    <path d="M8 4.5L13 7.5H3L8 4.5Z" fill="black" />
    <path fill-rule="evenodd" clip-rule="evenodd"
        d="M0.494615 6.61464C0.770757 7.09293 1.38235 7.25681 1.86064 6.98066L8.01172 3.42934L14.1318 6.96274C14.6101 7.23888 15.2216 7.07501 15.4978 6.59672C15.7739 6.11842 15.6101 5.50683 15.1318 5.23069L8.01744 1.12323L8.01458 1.11829L8.01172 1.11994L8.0089 1.1183L8.00607 1.1232L0.860641 5.24861C0.382348 5.52476 0.218473 6.13635 0.494615 6.61464Z"
        fill="black" />
</svg>