<svg width="16" height="16" viewBox="0 0 16 16" fill="none" xmlns="http://www.w3.org/2000/svg">
    <path fill-rule="evenodd" clip-rule="evenodd"
        d="M10 0V2H12.5858L8.00197 6.58385C7.61144 6.97437 7.61144 7.60754 8.00197 7.99806C8.39249 8.38859 9.02566 8.38859 9.41618 7.99806L14 3.41425V6H16L16 2L16 0H14H10ZM7 0V2H3C2.44772 2 2 2.44772 2 3V13C2 13.5523 2.44772 14 3 14H13C13.5523 14 14 13.5523 14 13V9H16L16 13C16 14.6569 14.6569 16 13 16H3C1.34315 16 0 14.6569 0 13V3C0 1.34315 1.34315 0 3 0H7Z"
        fill="black" />
</svg>