<svg width="16" height="16" viewBox="0 0 16 16" fill="none" xmlns="http://www.w3.org/2000/svg">
    <path opacity="0.5" fill-rule="evenodd" clip-rule="evenodd"
        d="M5.64584 8C4.93328 8.79613 4.5 9.84747 4.5 11V15H1C0.447715 15 0 14.5523 0 14V11C0 9.34315 1.34315 8 3 8H5.64584ZM7.06188 1.82086C6.70386 2.46649 6.5 3.20944 6.5 4C6.5 4.79056 6.70386 5.53351 7.06188 6.17914C6.52432 6.68796 5.7986 7 5 7C3.34315 7 2 5.65685 2 4C2 2.34315 3.34315 1 5 1C5.7986 1 6.52432 1.31204 7.06188 1.82086Z"
        fill="black" fill-opacity="0.6" />
    <path
        d="M6 11C6 9.34315 7.34315 8 9 8H13C14.6569 8 16 9.34315 16 11V14C16 14.5523 15.5523 15 15 15H7C6.44772 15 6 14.5523 6 14V11Z"
        fill="black" fill-opacity="0.6" />
    <circle cx="11" cy="4" r="3" fill="black" fill-opacity="0.6" />
</svg>