<svg width="16" height="16" viewBox="0 0 16 16" fill="none" xmlns="http://www.w3.org/2000/svg">
    <path opacity="0.5" fill-rule="evenodd" clip-rule="evenodd"
        d="M6.5 4C6.5 3.20944 6.70386 2.46649 7.06188 1.82086C6.52432 1.31204 5.7986 1 5 1C3.34315 1 2 2.34315 2 4C2 4.8213 2.33003 5.56551 2.86471 6.10726C3.23233 6.03686 3.61186 6 4 6C4.91246 6 5.77735 6.20368 6.55168 6.56806C6.7356 6.4567 6.90659 6.32613 7.06188 6.17914C6.70386 5.53351 6.5 4.79056 6.5 4Z"
        fill="black" />
    <path fill-rule="evenodd" clip-rule="evenodd"
        d="M14 4C14 5.65685 12.6569 7 11 7C9.34315 7 8 5.65685 8 4C8 2.34315 9.34315 1 11 1C12.6569 1 14 2.34315 14 4ZM8.50785 8.04017C8.66798 8.01375 8.83238 8 9 8H13C14.6569 8 16 9.34315 16 11V14C16 14.5523 15.5523 15 15 15H9.19731C9.70782 14.1175 10 13.0929 10 12C10 10.4826 9.43672 9.09676 8.50785 8.04017Z"
        fill="black" />
    <path fill-rule="evenodd" clip-rule="evenodd"
        d="M3.61755 8C3.39886 8 3.20554 8.14212 3.14031 8.35086L2.86849 9.22071C2.61267 9.32496 2.37447 9.46351 2.15961 9.63064L1.26959 9.43095C1.0562 9.38307 0.836456 9.47942 0.727109 9.66882L0.344705 10.3312C0.235359 10.5206 0.261784 10.759 0.40994 10.9199L1.02769 11.5906C1.00942 11.7245 1 11.8611 1 12C1 12.1389 1.00942 12.2755 1.02769 12.4094L0.409941 13.0801C0.261784 13.2409 0.235359 13.4794 0.344705 13.6688L0.727109 14.3312C0.836456 14.5206 1.0562 14.6169 1.26958 14.569L2.15959 14.3693C2.37448 14.5365 2.6127 14.6751 2.86856 14.7793L3.14037 15.6491C3.2056 15.8579 3.39892 16 3.61761 16H4.38242C4.60112 16 4.79443 15.8579 4.85966 15.6491L5.13149 14.7793C5.38732 14.675 5.62552 14.5365 5.84038 14.3693L6.73042 14.569C6.94381 14.6169 7.16355 14.5206 7.2729 14.3312L7.6553 13.6688C7.76465 13.4794 7.73822 13.241 7.59007 13.0801L6.97229 12.4093C6.99055 12.2755 7 12.1389 7 12C7 11.8611 6.99055 11.7245 6.97229 11.5906L7.59003 10.9199C7.73819 10.759 7.76462 10.5206 7.65527 10.3312L7.27287 9.66882C7.16352 9.47943 6.94378 9.38307 6.73039 9.43095L5.84037 9.63065C5.62549 9.4635 5.38727 9.32494 5.13142 9.22068L4.8596 8.35086C4.79437 8.14212 4.60105 8 4.38236 8H3.61755ZM4 13C4.55227 13 5 12.5523 5 12C5 11.4477 4.55227 11 4 11C3.4477 11 3 11.4477 3 12C3 12.5523 3.4477 13 4 13Z"
        fill="black" />
</svg>