<svg width="18" height="18" viewBox="0 0 18 18" fill="none" xmlns="http://www.w3.org/2000/svg">
<g clip-path="url(#clip0_22795_32405)">
<path d="M9 18C13.9706 18 18 13.9706 18 9C18 4.02944 13.9706 0 9 0C4.02944 0 0 4.02944 0 9C0 13.9706 4.02944 18 9 18Z" fill="#3E515F" fill-opacity="0.0898039"/>
<g opacity="0.6">
<path d="M9.39065 2.27937L8.32999 3.34003L10.8049 5.8149L11.8655 4.75424L9.39065 2.27937Z" fill="#3E515F"/>
<path d="M10.8049 3.68513L8.32999 6.16L9.39065 7.22066L11.8655 4.74579L10.8049 3.68513Z" fill="#3E515F"/>
<path d="M14 9C14 9.98891 13.7068 10.9556 13.1573 11.7779C12.6079 12.6001 11.827 13.241 10.9134 13.6194C9.99979 13.9978 8.99445 14.0969 8.02455 13.9039C7.05464 13.711 6.16373 13.2348 5.46447 12.5355C4.7652 11.8363 4.289 10.9454 4.09607 9.97545C3.90315 9.00555 4.00216 8.00021 4.3806 7.08658C4.75904 6.17295 5.3999 5.39206 6.22215 4.84265C7.04439 4.29324 8.01109 4 9 4L9 5.5C8.30777 5.5 7.63108 5.70527 7.0555 6.08986C6.47993 6.47444 6.03133 7.02107 5.76642 7.66061C5.50151 8.30015 5.4322 9.00388 5.56725 9.68282C5.7023 10.3617 6.03564 10.9854 6.52513 11.4749C7.01461 11.9644 7.63825 12.2977 8.31718 12.4327C8.99612 12.5678 9.69985 12.4985 10.3394 12.2336C10.9789 11.9687 11.5256 11.5201 11.9101 10.9445C12.2947 10.3689 12.5 9.69223 12.5 9H14Z" fill="#3E515F"/>
<rect x="9" y="4" width="1" height="2" fill="#3E515F"/>
</g>
</g>
<defs>
<clipPath id="clip0_22795_32405">
<rect width="18" height="18" fill="white"/>
</clipPath>
</defs>
</svg>
