<svg width="16" height="16" viewBox="0 0 16 16" fill="none" xmlns="http://www.w3.org/2000/svg">
  <rect opacity="0.45" x="2" width="12" height="16" rx="2" fill="black" />
  <path d="M6.1 8L4.6 9.5L3.1 8L6.1 8Z" fill="black" />
  <path
    d="M4 8C4 7.20887 4.2346 6.43552 4.67412 5.77772C5.11365 5.11992 5.73836 4.60723 6.46927 4.30448C7.20017 4.00173 8.00444 3.92252 8.78036 4.07686C9.55629 4.2312 10.269 4.61216 10.8284 5.17157C11.3878 5.73098 11.7688 6.44372 11.9231 7.21964C12.0775 7.99556 11.9983 8.79983 11.6955 9.53073C11.3928 10.2616 10.8801 10.8864 10.2223 11.3259C9.56448 11.7654 8.79112 12 8 12L8 10.8C8.55379 10.8 9.09514 10.6358 9.5556 10.3281C10.0161 10.0204 10.3749 9.58315 10.5869 9.07151C10.7988 8.55988 10.8542 7.99689 10.7462 7.45375C10.6382 6.9106 10.3715 6.41169 9.9799 6.0201C9.58831 5.62851 9.0894 5.36184 8.54625 5.2538C8.00311 5.14576 7.44012 5.20121 6.92849 5.41314C6.41685 5.62506 5.97955 5.98395 5.67189 6.4444C5.36422 6.90486 5.2 7.44621 5.2 8L4 8Z"
    fill="black" />
</svg>