<svg width="16" height="16" viewBox="0 0 16 16" fill="none" xmlns="http://www.w3.org/2000/svg">
    <path fill-rule="evenodd" clip-rule="evenodd"
        d="M13.7699 12.8559C14.5352 13.2977 15.5137 13.0355 15.9555 12.2703C16.066 12.0789 16.0004 11.8343 15.8091 11.7238L15.4786 11.533L10.3136 8.55098L8.31355 9.70568L13.4394 12.6651L13.444 12.6677L13.7699 12.8559ZM5.76182 10.0243L4.96309 10.4855C5.07499 10.6039 5.17484 10.7358 5.26033 10.8807C5.96158 12.0689 5.43125 13.6806 4.07579 14.4806C2.72033 15.2805 1.05303 14.9658 0.35178 13.7776C-0.349474 12.5894 0.180864 10.9777 1.53632 10.1777C1.55931 10.1641 1.58238 10.1509 1.60553 10.138L1.57328 10.1332L2.86874 9.38524L5.31364 7.97368L2.82654 6.53775L1.53108 5.7898L1.56333 5.78501C1.54017 5.77208 1.5171 5.75884 1.49412 5.74528C0.138658 4.94531 -0.39168 3.33358 0.309574 2.14538C1.01083 0.957183 2.67812 0.642459 4.03358 1.44243C5.38904 2.24239 5.91938 3.85412 5.21812 5.04232C5.13263 5.18718 5.03278 5.31905 4.92089 5.43751L7.31365 6.81897L13.4816 3.25791L13.4862 3.25527L13.8121 3.0671C14.5774 2.62527 15.5559 2.88747 15.9977 3.65274C16.1082 3.84405 16.0427 4.08869 15.8513 4.19915L15.5208 4.38996L11.9577 6.44716L11.9576 6.44708L5.76177 10.0243L5.76182 10.0243ZM3.92632 4.27992C4.11529 3.95974 4.07827 3.21056 3.27118 2.73423C2.46409 2.2579 1.79034 2.5876 1.60138 2.90778C1.41241 3.22796 1.44942 3.97714 2.25651 4.45348C3.0636 4.92981 3.73736 4.6001 3.92632 4.27992ZM3.96853 11.6431C4.15749 11.9632 4.12048 12.7124 3.31339 13.1888C2.5063 13.6651 1.83255 13.3354 1.64358 13.0152C1.45462 12.695 1.49163 11.9458 2.29872 11.4695C3.10581 10.9932 3.77956 11.3229 3.96853 11.6431Z"
        fill="black" />
</svg>