<svg width="16" height="16" viewBox="0 0 16 16" fill="none" xmlns="http://www.w3.org/2000/svg">
    <path fill-rule="evenodd" clip-rule="evenodd"
        d="M7.23515 0C6.79777 0 6.41114 0.284249 6.28067 0.701725L5.73703 2.4414C5.22538 2.64991 4.74898 2.92701 4.31925 3.26128L2.5392 2.86189C2.11243 2.76613 1.67295 2.95884 1.45425 3.33763L0.689444 4.66232C0.470751 5.0411 0.523601 5.51806 0.819915 5.83978L2.05539 7.18119C2.01886 7.44891 1.99999 7.72225 1.99999 8C1.99999 8.27774 2.01886 8.55107 2.05539 8.81878L0.819912 10.1602C0.523598 10.4819 0.470747 10.9589 0.68944 11.3376L1.45425 12.6623C1.67294 13.0411 2.11243 13.2338 2.5392 13.1381L4.31922 12.7387C4.74897 13.073 5.2254 13.3501 5.73708 13.5586L6.28072 15.2983C6.41118 15.7157 6.79781 16 7.2352 16H8.76481C9.2022 16 9.58883 15.7157 9.71929 15.2983L10.2629 13.5586C10.7746 13.3501 11.251 13.073 11.6808 12.7387L13.4609 13.1381C13.8876 13.2338 14.3271 13.0411 14.5458 12.6623L15.3106 11.3376C15.5293 10.9589 15.4765 10.4819 15.1801 10.1602L13.9446 8.8187C13.9811 8.55101 14 8.27771 14 8C14 7.72228 13.9811 7.44897 13.9446 7.18128L15.1801 5.83981C15.4764 5.51809 15.5293 5.04113 15.3106 4.66234L14.5458 3.33766C14.3271 2.95887 13.8876 2.76616 13.4608 2.86191L11.6808 3.26131C11.251 2.92702 10.7746 2.6499 10.2629 2.44138L9.71925 0.701725C9.58879 0.28425 9.20216 0 8.76477 0H7.23515ZM7.99999 10C9.10456 10 9.99999 9.10457 9.99999 8C9.99999 6.89543 9.10456 6 7.99999 6C6.89542 6 5.99999 6.89543 5.99999 8C5.99999 9.10457 6.89542 10 7.99999 10Z"
        fill="black" />
</svg>