<svg width="13" height="13" viewBox="0 1 13 13" fill="none" xmlns="http://www.w3.org/2000/svg">
    <mask id="path-1-inside-1_21234_4818" fill="white">
        <path fill-rule="evenodd" clip-rule="evenodd"
            d="M1.40203 7.95125C1.17219 8.21392 1.35873 8.62502 1.70776 8.62502H4.06248V11.875H8.93748V8.62502H11.2922C11.6412 8.62502 11.8278 8.21392 11.5979 7.95125L6.80571 2.47443C6.64386 2.28945 6.3561 2.28945 6.19425 2.47443L1.40203 7.95125Z" />
    </mask>
    <path
        d="M1.40203 7.95125L0.484824 7.14869L1.40203 7.95125ZM4.06248 8.62502H5.28123V7.40627H4.06248V8.62502ZM4.06248 11.875H2.84373V13.0938H4.06248V11.875ZM8.93748 11.875V13.0938H10.1562V11.875H8.93748ZM8.93748 8.62502V7.40627H7.71873V8.62502H8.93748ZM11.5979 7.95125L12.5151 7.1487L12.5151 7.14869L11.5979 7.95125ZM6.80571 2.47443L5.88851 3.27698L5.88851 3.27698L6.80571 2.47443ZM6.19425 2.47443L5.27704 1.67187L5.27704 1.67187L6.19425 2.47443ZM1.70776 7.40627C2.40583 7.40627 2.77891 8.22845 2.31923 8.7538L0.484824 7.14869C-0.434537 8.19939 0.311629 9.84377 1.70776 9.84377V7.40627ZM4.06248 7.40627H1.70776V9.84377H4.06248V7.40627ZM5.28123 11.875V8.62502H2.84373V11.875H5.28123ZM8.93748 10.6563H4.06248V13.0938H8.93748V10.6563ZM7.71873 8.62502V11.875H10.1562V8.62502H7.71873ZM11.2922 7.40627H8.93748V9.84377H11.2922V7.40627ZM10.6807 8.7538C10.2211 8.22845 10.5941 7.40627 11.2922 7.40627V9.84377C12.6883 9.84377 13.4345 8.19939 12.5151 7.1487L10.6807 8.7538ZM5.88851 3.27698L10.6807 8.7538L12.5151 7.14869L7.72292 1.67187L5.88851 3.27698ZM7.11145 3.27698C6.78774 3.64693 6.21222 3.64693 5.88851 3.27698L7.72292 1.67187C7.0755 0.931964 5.92446 0.931969 5.27704 1.67187L7.11145 3.27698ZM2.31923 8.7538L7.11145 3.27698L5.27704 1.67187L0.484824 7.14869L2.31923 8.7538Z"
        fill="black" mask="url(#path-1-inside-1_21234_4818)" />
</svg>