<svg width="16" height="16" viewBox="0 0 16 16" fill="none" xmlns="http://www.w3.org/2000/svg">
    <path fill-rule="evenodd" clip-rule="evenodd"
        d="M16 4C16 2.89543 15.1046 2 14 2H5.8798C5.31919 2 4.78431 2.23529 4.40549 2.64855L0.738826 6.64855C0.0379039 7.41319 0.0379044 8.58681 0.738827 9.35145L4.40549 13.3514C4.78431 13.7647 5.31919 14 5.8798 14H14C15.1046 14 16 13.1046 16 12V4ZM5.50002 9.5C6.32845 9.5 7.00002 8.82843 7.00002 8C7.00002 7.17157 6.32845 6.5 5.50002 6.5C4.67159 6.5 4.00002 7.17157 4.00002 8C4.00002 8.82843 4.67159 9.5 5.50002 9.5Z"
        fill="black" />
</svg>