<svg width="198" height="32" viewBox="0 0 198 32" fill="none" xmlns="http://www.w3.org/2000/svg">
    <path
        d="M5.72361 8.55279C5.893 8.214 6.23926 8 6.61803 8H9.38197C9.76074 8 10.107 8.214 10.2764 8.55279L10.5 9H5.5L5.72361 8.55279Z"
        fill="#F3180A" fill-opacity="0.87" />
    <path d="M2 10C2 9.44772 2.44772 9 3 9H13C13.5523 9 14 9.44772 14 10V11H2V10Z" fill="#F3180A" fill-opacity="0.87" />
    <path fill-rule="evenodd" clip-rule="evenodd"
        d="M14 12H2V22C2 23.1046 2.89543 24 4 24H12C13.1046 24 14 23.1046 14 22V12ZM4.5 14H5.5V22H4.5V14ZM8.5 14H7.5V22H8.5V14ZM11.5 14H10.5V22H11.5V14Z"
        fill="#F3180A" fill-opacity="0.87" />
    <path
        d="M28.9775 20V11.605H30.5875L33.0485 16.7455H33.0715L35.5325 11.605H37.1425V20H35.8775V13.6175H35.8545L33.658 18.2175H32.462L30.2655 13.6175H30.2425V20H28.9775ZM41.5572 20.115C40.6065 20.115 39.8705 19.8467 39.3492 19.31C38.8278 18.7657 38.5672 17.999 38.5672 17.01C38.5672 16.021 38.8278 15.2582 39.3492 14.7215C39.8705 14.1772 40.6065 13.905 41.5572 13.905C42.5078 13.905 43.2438 14.1772 43.7652 14.7215C44.2865 15.2582 44.5472 16.021 44.5472 17.01C44.5472 17.999 44.2865 18.7657 43.7652 19.31C43.2438 19.8467 42.5078 20.115 41.5572 20.115ZM41.5572 19.08C42.1245 19.08 42.5577 18.9037 42.8567 18.551C43.1557 18.1983 43.3052 17.6847 43.3052 17.01C43.3052 16.3353 43.1557 15.8217 42.8567 15.469C42.5577 15.1163 42.1245 14.94 41.5572 14.94C40.9975 14.94 40.5643 15.1163 40.2577 15.469C39.9587 15.8217 39.8092 16.3353 39.8092 17.01C39.8092 17.6847 39.9587 18.1983 40.2577 18.551C40.5643 18.9037 40.9975 19.08 41.5572 19.08ZM47.155 20L45.039 14.02H46.396L48.0175 19.103H48.0405L49.662 14.02H51.019L48.903 20H47.155ZM54.7474 20.115C53.7124 20.115 52.915 19.8467 52.3554 19.31C51.7957 18.7733 51.5159 18.0067 51.5159 17.01C51.5159 16.044 51.7727 15.285 52.2864 14.733C52.8077 14.181 53.5207 13.905 54.4254 13.905C55.2994 13.905 55.9702 14.1657 56.4379 14.687C56.9132 15.2083 57.1509 15.9482 57.1509 16.9065C57.1509 17.0062 57.147 17.1173 57.1394 17.24C57.1394 17.3627 57.1355 17.4585 57.1279 17.5275H52.2059V16.55H56.1849L55.9894 16.849C55.9894 16.1973 55.859 15.7143 55.5984 15.4C55.3377 15.078 54.9467 14.917 54.4254 14.917C53.8734 14.917 53.4517 15.0857 53.1604 15.423C52.8767 15.7603 52.7349 16.251 52.7349 16.895V17.24C52.7349 17.861 52.8959 18.3248 53.2179 18.6315C53.5475 18.9305 54.042 19.08 54.7014 19.08C55.0234 19.08 55.3645 19.0493 55.7249 18.988C56.0929 18.919 56.4187 18.8308 56.7024 18.7235L56.8634 19.724C56.572 19.8467 56.2385 19.9425 55.8629 20.0115C55.4949 20.0805 55.123 20.115 54.7474 20.115ZM64.0012 20V12.755H61.1492V11.605H68.1642V12.755H65.3122V20H64.0012ZM70.2173 20.115C69.2666 20.115 68.5306 19.8467 68.0093 19.31C67.488 18.7657 67.2273 17.999 67.2273 17.01C67.2273 16.021 67.488 15.2582 68.0093 14.7215C68.5306 14.1772 69.2666 13.905 70.2173 13.905C71.168 13.905 71.904 14.1772 72.4253 14.7215C72.9466 15.2582 73.2073 16.021 73.2073 17.01C73.2073 17.999 72.9466 18.7657 72.4253 19.31C71.904 19.8467 71.168 20.115 70.2173 20.115ZM70.2173 19.08C70.7846 19.08 71.2178 18.9037 71.5168 18.551C71.8158 18.1983 71.9653 17.6847 71.9653 17.01C71.9653 16.3353 71.8158 15.8217 71.5168 15.469C71.2178 15.1163 70.7846 14.94 70.2173 14.94C69.6576 14.94 69.2245 15.1163 68.9178 15.469C68.6188 15.8217 68.4693 16.3353 68.4693 17.01C68.4693 17.6847 68.6188 18.1983 68.9178 18.551C69.2245 18.9037 69.6576 19.08 70.2173 19.08ZM80.072 20V12.755H77.22V11.605H84.235V12.755H81.383V20H80.072ZM84.0833 20V14.02H85.2793L85.2908 15.17H85.3138C85.5054 14.9017 85.7354 14.6755 86.0038 14.4915C86.2798 14.2998 86.5864 14.1542 86.9238 14.0545C87.2688 13.9548 87.6253 13.905 87.9933 13.905V14.9975C87.5026 14.9975 87.0541 15.0933 86.6478 15.285C86.2491 15.4767 85.9309 15.7335 85.6933 16.0555C85.4556 16.3775 85.3368 16.734 85.3368 17.125V20H84.0833ZM90.3827 20.115C89.7847 20.115 89.3132 19.954 88.9682 19.632C88.6232 19.3023 88.4507 18.8577 88.4507 18.298C88.4507 17.6003 88.7267 17.0637 89.2787 16.688C89.8307 16.3047 90.6166 16.113 91.6362 16.113H92.4987C92.4987 15.8063 92.4604 15.5687 92.3837 15.4C92.3071 15.2313 92.1729 15.1125 91.9812 15.0435C91.7972 14.9745 91.5404 14.94 91.2107 14.94C90.8197 14.94 90.4211 14.9783 90.0147 15.055C89.6161 15.1317 89.2366 15.2467 88.8762 15.4L88.7037 14.3765C89.0871 14.2308 89.5087 14.1158 89.9687 14.0315C90.4364 13.9472 90.9041 13.905 91.3717 13.905C91.9697 13.905 92.4374 13.9778 92.7747 14.1235C93.1197 14.2692 93.3651 14.5145 93.5107 14.8595C93.6641 15.2045 93.7407 15.6607 93.7407 16.228V20H92.5562L92.5447 19.31H92.5217C92.3147 19.5477 92.0081 19.7432 91.6017 19.8965C91.2031 20.0422 90.7967 20.115 90.3827 20.115ZM90.8197 19.103C91.1264 19.103 91.4062 19.0455 91.6592 18.9305C91.9199 18.8155 92.1231 18.6622 92.2687 18.4705C92.4221 18.2788 92.4987 18.0642 92.4987 17.8265V17.056H91.8087C91.1034 17.056 90.5744 17.148 90.2217 17.332C89.8691 17.516 89.6927 17.7958 89.6927 18.1715C89.6927 18.4628 89.7886 18.6928 89.9802 18.8615C90.1796 19.0225 90.4594 19.103 90.8197 19.103ZM97.2797 20.115C97.0114 20.115 96.7315 20.0958 96.4402 20.0575C96.1565 20.0268 95.8844 19.9808 95.6237 19.9195C95.363 19.8505 95.133 19.7738 94.9337 19.6895L95.1062 18.6775C95.4435 18.8002 95.7847 18.8998 96.1297 18.9765C96.4747 19.0455 96.8159 19.08 97.1532 19.08C97.5979 19.08 97.9275 19.0187 98.1422 18.896C98.3645 18.7657 98.4757 18.574 98.4757 18.321C98.4757 18.1753 98.4374 18.0565 98.3607 17.9645C98.284 17.8648 98.1499 17.7767 97.9582 17.7C97.7665 17.6157 97.502 17.5352 97.1647 17.4585C96.7047 17.3435 96.3022 17.2093 95.9572 17.056C95.6199 16.9027 95.3592 16.7072 95.1752 16.4695C94.9912 16.2318 94.8992 15.9328 94.8992 15.5725C94.8992 15.0282 95.1062 14.6142 95.5202 14.3305C95.9419 14.0468 96.5475 13.905 97.3372 13.905C97.7052 13.905 98.0809 13.9357 98.4642 13.997C98.8552 14.0583 99.2117 14.1465 99.5337 14.2615L99.3497 15.2735C99.043 15.1585 98.7325 15.0742 98.4182 15.0205C98.1115 14.9668 97.801 14.94 97.4867 14.94C97.0344 14.94 96.697 14.9975 96.4747 15.1125C96.26 15.2198 96.1527 15.3847 96.1527 15.607C96.1527 15.7373 96.1872 15.8485 96.2562 15.9405C96.3329 16.0325 96.4632 16.1168 96.6472 16.1935C96.8312 16.2702 97.088 16.3468 97.4177 16.4235C97.755 16.5002 98.0617 16.5922 98.3377 16.6995C98.6214 16.8068 98.8667 16.9372 99.0737 17.0905C99.2807 17.2362 99.4417 17.4125 99.5567 17.6195C99.6717 17.8265 99.7292 18.0718 99.7292 18.3555C99.7292 18.7235 99.6295 19.0378 99.4302 19.2985C99.2385 19.5592 98.9587 19.7623 98.5907 19.908C98.2304 20.046 97.7934 20.115 97.2797 20.115ZM101.064 20V11.605H102.306V14.733H102.329C102.566 14.457 102.85 14.25 103.18 14.112C103.509 13.974 103.889 13.905 104.318 13.905C105.062 13.905 105.606 14.1005 105.951 14.4915C106.304 14.8825 106.476 15.492 106.469 16.32V20H105.227V16.55C105.234 15.998 105.135 15.5917 104.928 15.331C104.721 15.0703 104.403 14.94 103.973 14.94C103.651 14.94 103.364 15.0052 103.111 15.1355C102.865 15.2658 102.67 15.446 102.524 15.676C102.386 15.8983 102.313 16.1552 102.306 16.4465V20H101.064Z"
        fill="black" fill-opacity="0.6" />
    <g opacity="0.5">
        <path
            d="M162.978 20V11.605H165.278C166.757 11.605 167.854 11.95 168.567 12.64C169.287 13.33 169.648 14.3842 169.648 15.8025C169.648 17.2208 169.287 18.275 168.567 18.965C167.854 19.655 166.757 20 165.278 20H162.978ZM165.358 18.85C166.056 18.85 166.623 18.7465 167.06 18.5395C167.505 18.3248 167.831 17.9913 168.038 17.539C168.252 17.0867 168.36 16.5078 168.36 15.8025C168.36 15.0895 168.252 14.5107 168.038 14.066C167.831 13.6137 167.505 13.284 167.06 13.077C166.623 12.8623 166.056 12.755 165.358 12.755H164.243V18.85H165.358ZM173.822 20.115C172.787 20.115 171.99 19.8467 171.43 19.31C170.87 18.7733 170.591 18.0067 170.591 17.01C170.591 16.044 170.847 15.285 171.361 14.733C171.882 14.181 172.595 13.905 173.5 13.905C174.374 13.905 175.045 14.1657 175.513 14.687C175.988 15.2083 176.226 15.9482 176.226 16.9065C176.226 17.0062 176.222 17.1173 176.214 17.24C176.214 17.3627 176.21 17.4585 176.203 17.5275H171.281V16.55H175.26L175.064 16.849C175.064 16.1973 174.934 15.7143 174.673 15.4C174.412 15.078 174.021 14.917 173.5 14.917C172.948 14.917 172.526 15.0857 172.235 15.423C171.951 15.7603 171.81 16.251 171.81 16.895V17.24C171.81 17.861 171.971 18.3248 172.293 18.6315C172.622 18.9305 173.117 19.08 173.776 19.08C174.098 19.08 174.439 19.0493 174.8 18.988C175.168 18.919 175.493 18.8308 175.777 18.7235L175.938 19.724C175.647 19.8467 175.313 19.9425 174.938 20.0115C174.57 20.0805 174.198 20.115 173.822 20.115ZM177.633 20V11.605H178.898V20H177.633ZM183.559 20.115C182.524 20.115 181.727 19.8467 181.167 19.31C180.607 18.7733 180.327 18.0067 180.327 17.01C180.327 16.044 180.584 15.285 181.098 14.733C181.619 14.181 182.332 13.905 183.237 13.905C184.111 13.905 184.782 14.1657 185.249 14.687C185.725 15.2083 185.962 15.9482 185.962 16.9065C185.962 17.0062 185.959 17.1173 185.951 17.24C185.951 17.3627 185.947 17.4585 185.939 17.5275H181.017V16.55H184.996L184.801 16.849C184.801 16.1973 184.671 15.7143 184.41 15.4C184.149 15.078 183.758 14.917 183.237 14.917C182.685 14.917 182.263 15.0857 181.972 15.423C181.688 15.7603 181.546 16.251 181.546 16.895V17.24C181.546 17.861 181.707 18.3248 182.029 18.6315C182.359 18.9305 182.854 19.08 183.513 19.08C183.835 19.08 184.176 19.0493 184.536 18.988C184.904 18.919 185.23 18.8308 185.514 18.7235L185.675 19.724C185.384 19.8467 185.05 19.9425 184.674 20.0115C184.306 20.0805 183.935 20.115 183.559 20.115ZM189.687 20.115C188.997 20.115 188.499 19.9732 188.192 19.6895C187.893 19.3982 187.744 18.9267 187.744 18.275V15.055H186.364V14.02H187.744V12.065H188.997V14.02H191.079V15.055H188.997V17.93C188.997 18.3363 189.066 18.62 189.204 18.781C189.342 18.942 189.588 19.0225 189.94 19.0225C190.117 19.0225 190.293 19.0072 190.469 18.9765C190.653 18.9458 190.818 18.9037 190.964 18.85L191.079 19.908C190.833 19.9847 190.596 20.0383 190.366 20.069C190.143 20.0997 189.917 20.115 189.687 20.115ZM195.16 20.115C194.125 20.115 193.328 19.8467 192.768 19.31C192.208 18.7733 191.928 18.0067 191.928 17.01C191.928 16.044 192.185 15.285 192.699 14.733C193.22 14.181 193.933 13.905 194.838 13.905C195.712 13.905 196.383 14.1657 196.85 14.687C197.326 15.2083 197.563 15.9482 197.563 16.9065C197.563 17.0062 197.56 17.1173 197.552 17.24C197.552 17.3627 197.548 17.4585 197.54 17.5275H192.618V16.55H196.597L196.402 16.849C196.402 16.1973 196.272 15.7143 196.011 15.4C195.75 15.078 195.359 14.917 194.838 14.917C194.286 14.917 193.864 15.0857 193.573 15.423C193.289 15.7603 193.147 16.251 193.147 16.895V17.24C193.147 17.861 193.308 18.3248 193.63 18.6315C193.96 18.9305 194.455 19.08 195.114 19.08C195.436 19.08 195.777 19.0493 196.137 18.988C196.505 18.919 196.831 18.8308 197.115 18.7235L197.276 19.724C196.985 19.8467 196.651 19.9425 196.275 20.0115C195.907 20.0805 195.536 20.115 195.16 20.115Z"
            fill="black" fill-opacity="0.6" />
    </g>
</svg>