<svg width="16" height="16" viewBox="0 0 16 16" fill="none" xmlns="http://www.w3.org/2000/svg">
    <path fill-rule="evenodd" clip-rule="evenodd"
        d="M2 0C0.895431 0 0 0.895431 0 2V7H3.5H4.05425L4.348 7.47L5.93145 10.0035L9.11765 4.02941L9.87648 2.6066L10.8137 3.91876L13.0146 7H16V2C16 0.895431 15.1046 0 14 0H2ZM16 9H12.5H11.9854L11.6863 8.58124L10.1235 6.3934L6.88235 12.4706L6.06855 13.9965L5.152 12.53L2.94575 9H0V14C0 15.1046 0.895431 16 2 16H14C15.1046 16 16 15.1046 16 14V9Z"
        fill="black" fill-opacity="0.6" />
</svg>