<svg width="16" height="16" viewBox="0 0 16 16" fill="none" xmlns="http://www.w3.org/2000/svg">
  <path fill-rule="evenodd" clip-rule="evenodd"
    d="M7.99988 2.5C11.4999 2.5 13.9999 5.25 15.9999 8L10.4999 8C10.4999 6.61929 9.38059 5.5 7.99988 5.5C6.61917 5.5 5.49988 6.61929 5.49988 8L-0.000123032 8C1.99988 5.25 4.49988 2.5 7.99988 2.5Z"
    fill="black" fill-opacity="0.6" />
  <path fill-rule="evenodd" clip-rule="evenodd"
    d="M7.99988 13.5C4.49988 13.5 1.99988 10.75 -0.000120628 8L5.49988 8C5.49988 9.38071 6.61917 10.5 7.99988 10.5C9.38059 10.5 10.4999 9.38071 10.4999 8L15.9999 8C13.9999 10.75 11.4999 13.5 7.99988 13.5Z"
    fill="black" fill-opacity="0.6" />
</svg>