<svg width="16" height="16" viewBox="0 0 16 16" fill="none" xmlns="http://www.w3.org/2000/svg">
  <path fill-rule="evenodd" clip-rule="evenodd"
    d="M3.73244 4C3.38663 4.5978 2.74028 5 2 5C0.895431 5 0 4.10457 0 3C0 1.89543 0.895431 1 2 1C2.74028 1 3.38663 1.4022 3.73244 2H10C10.9283 2 11.8185 2.36875 12.4749 3.02513C13.1313 3.6815 13.5 4.57174 13.5 5.5C13.5 6.42826 13.1313 7.3185 12.4749 7.97487C11.8185 8.63125 10.9283 9 10 9H7C6.17158 9 5.5 9.67157 5.5 10.5C5.5 11.3284 6.17157 12 7 12H12.2676C12.6134 11.4022 13.2597 11 14 11C15.1046 11 16 11.8954 16 13C16 14.1046 15.1046 15 14 15C13.2597 15 12.6134 14.5978 12.2676 14H7C6.07174 14 5.1815 13.6313 4.52513 12.9749C3.86875 12.3185 3.5 11.4283 3.5 10.5C3.5 9.57174 3.86875 8.6815 4.52513 8.02513C5.1815 7.36875 6.07174 7 7 7L10 7C10.8284 7 11.5 6.32843 11.5 5.5C11.5 4.67158 10.8284 4.00001 10 4H3.73244Z"
    fill="black" fill-opacity="0.6" />
</svg>