<svg width="16" height="16" viewBox="0 0 24 24" fill="none" xmlns="http://www.w3.org/2000/svg">
<path d="M15.2759 13.1471C17.7492 12.5458 20.5095 13.7876 21.7972 16.8725C22.4674 18.4782 21.0226 20 19.2826 20H17.0017M10.5017 7C10.5017 8.65685 9.15859 10 7.50174 10C5.84489 10 4.50174 8.65685 4.50174 7C4.50174 5.34315 5.84489 4 7.50174 4C9.15859 4 10.5017 5.34315 10.5017 7ZM19.5017 7C19.5017 8.65685 18.1586 10 16.5017 10C14.8449 10 13.5017 8.65685 13.5017 7C13.5017 5.34315 14.8449 4 16.5017 4C18.1586 4 19.5017 5.34315 19.5017 7ZM10.2828 20H4.72066C2.98074 20 1.53609 18.4769 2.20657 16.8713C4.36215 11.7096 10.6413 11.7096 12.7969 16.8713C13.4674 18.4769 12.0227 20 10.2828 20Z" stroke="black" stroke-width="2" stroke-linecap="round" stroke-linejoin="round"/>
</svg>
