<svg width="16" height="16" viewBox="0.8 0 16 16" fill="none" xmlns="http://www.w3.org/2000/svg">
    <path fill-rule="evenodd" clip-rule="evenodd"
        d="M15.3316 8.82566L8.80005 15L2.26851 8.82566C1.49808 8.12297 0.972708 7.15615 0.835606 6.06842L0.800049 6H0.827513C0.809365 5.83583 0.800049 5.669 0.800049 5.5C0.800049 3.01472 2.81477 1 5.30005 1C6.71368 1 7.97507 1.65183 8.80005 2.67134C9.62503 1.65183 10.8864 1 12.3 1C14.7853 1 16.8 3.01472 16.8 5.5C16.8 5.669 16.7907 5.83583 16.7726 6H16.8L16.7645 6.06842C16.6274 7.15615 16.102 8.12297 15.3316 8.82566Z"
        fill="black" />
</svg>