<svg width="16" height="16" viewBox="0 0 24 24" fill="none" xmlns="http://www.w3.org/2000/svg">
<path d="M14.6716 3.41425C16.2337 1.85215 18.7663 1.85215 20.3284 3.41425L20.5858 3.67161C22.1479 5.23371 22.1479 7.76637 20.5858 9.32846L9.08579 20.8285C8.33564 21.5786 7.31823 22 6.25736 22H3C2.44772 22 2 21.5523 2 21V17.7427C2 16.6818 2.42143 15.6644 3.17157 14.9142L14.6716 3.41425Z" fill="black"/>
<path d="M14 20C13.4477 20 13 20.4477 13 21C13 21.5523 13.4477 22 14 22H21C21.5523 22 22 21.5523 22 21C22 20.4477 21.5523 20 21 20H14Z" fill="black"/>
</svg>
