<svg width="16" height="16" viewBox="1 1 16 16" fill="none" xmlns="http://www.w3.org/2000/svg">
	<path d="M3.39065 7.79933L2.32999 8.85999L4.80486 11.3349L5.86552 10.2742L3.39065 7.79933Z" fill="black" />
	<path d="M6.22487 7.79512L3.75 10.27L4.81066 11.3306L7.28553 8.85578L6.22487 7.79512Z" fill="black" />
	<path
		d="M4 9C4 8.01109 4.29325 7.04439 4.84265 6.22215C5.39206 5.3999 6.17295 4.75904 7.08658 4.3806C8.00021 4.00216 9.00555 3.90315 9.97545 4.09607C10.9454 4.289 11.8363 4.7652 12.5355 5.46447C13.2348 6.16373 13.711 7.05464 13.9039 8.02455C14.0969 8.99445 13.9978 9.99979 13.6194 10.9134C13.241 11.827 12.6001 12.6079 11.7778 13.1573C10.9556 13.7068 9.9889 14 9 14L9 12.5C9.69223 12.5 10.3689 12.2947 10.9445 11.9101C11.5201 11.5256 11.9687 10.9789 12.2336 10.3394C12.4985 9.69985 12.5678 8.99612 12.4327 8.31718C12.2977 7.63825 11.9644 7.01461 11.4749 6.52513C10.9854 6.03564 10.3618 5.7023 9.68282 5.56725C9.00388 5.4322 8.30015 5.50151 7.66061 5.76642C7.02107 6.03133 6.47444 6.47993 6.08986 7.0555C5.70527 7.63108 5.5 8.30777 5.5 9L4 9Z"
		fill="black" />
	<rect x="4" y="9" width="2" height="1" fill="black" />
</svg>