<svg width="18" height="18" viewBox="0 0 18 18" fill="none" xmlns="http://www.w3.org/2000/svg">
  <path fill-rule="evenodd" clip-rule="evenodd"
    d="M5.75869 4.11645e-07H12.2413C13.0463 -1.19522e-05 13.7106 -2.2158e-05 14.2518 0.0441949C14.8139 0.0901201 15.3306 0.188684 15.816 0.435975C16.5686 0.819469 17.1805 1.43139 17.564 2.18404C17.8113 2.66937 17.9099 3.18608 17.9558 3.74818C18 4.28936 18 4.95372 18 5.75868V12.2413C18 13.0463 18 13.7106 17.9558 14.2518C17.9099 14.8139 17.8113 15.3306 17.564 15.816C17.1805 16.5686 16.5686 17.1805 15.816 17.564C15.3306 17.8113 14.8139 17.9099 14.2518 17.9558C13.7106 18 13.0463 18 12.2413 18H5.75868C4.95372 18 4.28937 18 3.74818 17.9558C3.18608 17.9099 2.66937 17.8113 2.18404 17.564C1.43139 17.1805 0.819469 16.5686 0.435975 15.816C0.188684 15.3306 0.0901201 14.8139 0.0441949 14.2518C-2.21543e-05 13.7106 -1.19522e-05 13.0463 4.11648e-07 12.2413V5.7587C-1.19522e-05 4.95374 -2.2158e-05 4.28937 0.0441949 3.74818C0.0901201 3.18608 0.188684 2.66937 0.435975 2.18404C0.819469 1.43139 1.43139 0.819469 2.18404 0.435975C2.66937 0.188684 3.18608 0.0901201 3.74818 0.0441949C4.28937 -2.21543e-05 4.95372 -1.19522e-05 5.75869 4.11645e-07ZM12 13C12 13.5523 12.4477 14 13 14C13.5523 14 14 13.5523 14 13V5C14 4.44772 13.5523 4 13 4C12.4477 4 12 4.44772 12 5V13Z"
    fill="black" />
</svg>