<svg width="100" height="70" viewBox="0 0 100 70" fill="none" xmlns="http://www.w3.org/2000/svg">
    <g clip-path="url(#clip0_16501_39008)">
        <path fill-rule="evenodd" clip-rule="evenodd"
            d="M88.1761 2.8209C92.4088 3.94999 95.7107 7.25572 96.8554 11.4773C99.8491 23.5209 99.6541 46.2909 96.9183 58.5227C95.7862 62.7443 92.4717 66.0374 88.239 67.1791C76.2893 70.1273 22.7673 69.7634 11.5094 67.1791C7.27674 66.05 3.97485 62.7443 2.8302 58.5227C0.00629854 47.0436 0.201267 22.7682 2.7673 11.54C3.89938 7.31845 7.21385 4.02526 11.4466 2.88363C27.4214 -0.440917 82.4906 0.631719 88.1761 2.8209ZM40.3774 20.3218L66.0378 35L40.3774 49.6782V20.3218Z"
            fill="white" />
    </g>
    <defs>
        <clipPath id="clip0_16501_39008">
            <rect width="100" height="69" fill="white" transform="translate(0 0.5)" />
        </clipPath>
    </defs>
</svg>