<svg width="16" height="16" viewBox="0 0 16 16" fill="none" xmlns="http://www.w3.org/2000/svg">
    <path fill-rule="evenodd" clip-rule="evenodd"
        d="M15.1275 8.47388C15.6796 7.61646 16 6.59564 16 5.5C16 2.46243 13.5376 0 10.5 0C7.46243 0 5 2.46243 5 5.5C5 5.96094 5.0567 6.40863 5.16351 6.83649L0 12V14.5L1 16H2L4 15L4.5 13H7L7.5 11H8.41604C9.1876 9.2341 10.9497 8 13 8C13.7608 8 14.4819 8.16992 15.1275 8.47388ZM12 5.5C12 6.32843 11.3284 7 10.5 7C9.67157 7 9 6.32843 9 5.5C9 4.67157 9.67157 4 10.5 4C11.3284 4 12 4.67157 12 5.5Z"
        fill="black" />
    <path fill-rule="evenodd" clip-rule="evenodd" d="M14 14V15V16H12V15V14H10V12L12 12V10H14V12L16 12V14H14Z"
        fill="black" />
</svg>