<svg width="13" height="13" viewBox="0 1 13 13" fill="none" xmlns="http://www.w3.org/2000/svg">
    <path fill-rule="evenodd" clip-rule="evenodd"
        d="M4.46875 4.96875V4.15625C4.46875 3.70752 4.10498 3.34375 3.65625 3.34375C3.20752 3.34375 2.84375 3.70752 2.84375 4.15625C2.84375 4.60498 3.20752 4.96875 3.65625 4.96875H4.46875ZM4.46875 6.1875H3.65625C2.53442 6.1875 1.625 5.27808 1.625 4.15625C1.625 3.03442 2.53442 2.125 3.65625 2.125C4.77808 2.125 5.6875 3.03442 5.6875 4.15625V4.96875H7.3125V4.15625C7.3125 3.03442 8.22192 2.125 9.34375 2.125C10.4656 2.125 11.375 3.03442 11.375 4.15625C11.375 5.27808 10.4656 6.1875 9.34375 6.1875H8.53125V7.8125H9.34375C10.4656 7.8125 11.375 8.72192 11.375 9.84375C11.375 10.9656 10.4656 11.875 9.34375 11.875C8.22192 11.875 7.3125 10.9656 7.3125 9.84375V9.03125H5.6875V9.84375C5.6875 10.9656 4.77808 11.875 3.65625 11.875C2.53442 11.875 1.625 10.9656 1.625 9.84375C1.625 8.72192 2.53442 7.8125 3.65625 7.8125H4.46875V6.1875ZM4.46875 9.03125H3.65625C3.20752 9.03125 2.84375 9.39502 2.84375 9.84375C2.84375 10.2925 3.20752 10.6562 3.65625 10.6562C4.10498 10.6562 4.46875 10.2925 4.46875 9.84375V9.03125ZM5.6875 7.8125V7.40625V6.59375V6.1875H6.09375H6.90625H7.3125V6.59375V7.40625V7.8125H6.90625H6.09375H5.6875ZM8.53125 9.03125V9.84375C8.53125 10.2925 8.89502 10.6562 9.34375 10.6562C9.79248 10.6562 10.1562 10.2925 10.1562 9.84375C10.1562 9.39502 9.79248 9.03125 9.34375 9.03125H8.53125ZM8.53125 4.96875H9.34375C9.79248 4.96875 10.1562 4.60498 10.1562 4.15625C10.1562 3.70752 9.79248 3.34375 9.34375 3.34375C8.89502 3.34375 8.53125 3.70752 8.53125 4.15625V4.96875Z"
        fill="black" />
</svg>