<svg width="16" height="16" viewBox="0 0 16 16" fill="none" xmlns="http://www.w3.org/2000/svg">
	<rect x="2" y="2" width="12" height="9" rx="1" stroke="black" stroke-width="2" />
	<path
		d="M7.06963 13.5822L7.43037 11.4178C7.47055 11.1767 7.67914 11 7.92356 11H8.07644C8.32086 11 8.52945 11.1767 8.56963 11.4178L9 14H6.57644C6.82086 14 7.02945 13.8233 7.06963 13.5822Z"
		fill="black" />
	<path
		d="M11.5 14H9M9 14H4.5H6.57644C6.82086 14 7.02945 13.8233 7.06963 13.5822L7.43037 11.4178C7.47055 11.1767 7.67914 11 7.92356 11H8.07644C8.32086 11 8.52945 11.1767 8.56963 11.4178L9 14Z"
		stroke="black" stroke-width="2" stroke-linecap="round" stroke-linejoin="round" />
	<rect opacity="0.3" x="3" y="3" width="10" height="7" fill="black" />
</svg>