<svg width="16" height="16" viewBox="0.4 0 16 16" fill="none" xmlns="http://www.w3.org/2000/svg">
    <circle cx="8.4" cy="8" r="7" stroke="black" stroke-width="2" />
    <path fill-rule="evenodd" clip-rule="evenodd"
        d="M12.02 10.8112C12.3647 10.4101 12.573 9.88852 12.573 9.31828C12.573 8.05263 11.5469 7.02661 10.2813 7.02661C9.49094 7.02661 8.79404 7.4267 8.38207 8.0354C7.79798 8.82866 6.85752 9.34336 5.79686 9.34336C5.07403 9.34336 4.40704 9.10432 3.87061 8.70098L3.87076 8.70196C3.98182 9.41859 4.26135 10.0986 4.68636 10.6862C5.11138 11.2738 5.66976 11.7522 6.31561 12.082C6.96147 12.4118 7.67636 12.5836 8.40155 12.5834C9.12673 12.5831 9.84151 12.4108 10.4871 12.0806C11.0855 11.7745 11.6086 11.3409 12.02 10.8112Z"
        fill="black" />
</svg>