<svg width="16" height="16" viewBox="0 0 16 16" fill="none" xmlns="http://www.w3.org/2000/svg">
	<path opacity="0.6" fill-rule="evenodd" clip-rule="evenodd"
		d="M9.66636 15.8245C10.9925 15.5421 12.2172 14.9291 13.2316 14.0523L10.6177 12.0013C10.127 12.3224 9.57781 12.5527 8.99597 12.6766C7.92483 12.9048 6.80784 12.7583 5.83175 12.2616C4.85566 11.765 4.07963 10.9484 3.6334 9.94824C3.57221 9.81108 3.51772 9.6716 3.46999 9.5303L0.842987 11.5745C1.60697 13.1043 2.84283 14.352 4.37227 15.1302C6.00537 15.9611 7.87422 16.2062 9.66636 15.8245Z"
		fill="black" />
	<path opacity="0.4" fill-rule="evenodd" clip-rule="evenodd"
		d="M3.46999 9.53031L0.842985 11.5745C0.7912 11.4708 0.741583 11.3658 0.69419 11.2596C-0.0523962 9.58629 -0.201934 7.70738 0.270576 5.93702C0.410984 5.41095 0.603788 4.90395 0.844315 4.42282L3.46958 6.4709C3.43669 6.56836 3.40687 6.6671 3.38021 6.76698C3.13653 7.67999 3.16965 8.64131 3.46999 9.53031Z"
		fill="black" />
	<path fill-rule="evenodd" clip-rule="evenodd"
		d="M3.29013 1.53339C2.24912 2.2916 1.41323 3.28482 0.844315 4.42282L3.46958 6.4709C3.78512 5.53597 4.38328 4.71888 5.18496 4.13498C6.07021 3.49022 7.14997 3.16889 8.24371 3.22471C9.33745 3.28053 10.3789 3.71011 11.1939 4.44165L13.3437 2.04647C11.9801 0.822539 10.2377 0.103794 8.40775 0.0104031C6.5778 -0.0829874 4.77125 0.454637 3.29013 1.53339Z"
		fill="black" />
	<path opacity="0.9" fill-rule="evenodd" clip-rule="evenodd"
		d="M8 6.50002H16V8H16C16 9.83233 15.371 11.6091 14.2182 13.0333C13.9184 13.4036 13.588 13.7443 13.2316 14.0523L10.6177 12.0013C11.0304 11.7313 11.4018 11.3972 11.7165 11.0084C12.0481 10.5988 12.3071 10.1404 12.4867 9.653C12.4932 9.63537 12.4996 9.61771 12.5059 9.60002H8V8.00002V6.50002Z"
		fill="black" />
</svg>