<svg width="16" height="16" viewBox="0 0 16 16" fill="none" xmlns="http://www.w3.org/2000/svg">
    <path fill-rule="evenodd" clip-rule="evenodd"
        d="M1.12012 11.776L12.7387 5.06807C12.7403 5.06838 12.742 5.06869 12.7437 5.06901L16.0071 3.18391L16.0071 5.49044L14.828 6.17119C15.5521 6.89508 16 7.89524 16 9C16 11.2091 14.2091 13 12 13H4H3.5V12.9691C3.38338 12.9545 3.26833 12.9349 3.15505 12.9106L0.00883 14.7271L0 12.4312L1.12462 11.7807C1.12312 11.7791 1.12162 11.7776 1.12012 11.776ZM11.5851 4.00268L0.29851 10.519C0.1061 10.0506 0 9.53771 0 9C0 7.51015 0.81451 6.21055 2.02253 5.52219C2.26308 2.9849 4.39974 1 7 1C9.0514 1 10.8142 2.23534 11.5851 4.00268Z"
        fill="black" />
</svg>