<svg width="16" height="16" viewBox="0.8 0 16 16" fill="none" xmlns="http://www.w3.org/2000/svg">
    <path fill-rule="evenodd" clip-rule="evenodd"
        d="M16.8 2V6H14.8V3.41425L10.2162 7.99806C9.82571 8.38859 9.19254 8.38859 8.80202 7.99806C8.41149 7.60754 8.41149 6.97437 8.80202 6.58385L13.3859 2H10.8V0H14.8C15.9046 0 16.8 0.89543 16.8 2ZM2.80005 2H8.80005V0H2.80005C1.69548 0 0.800049 0.89543 0.800049 2V14C0.800049 15.1046 1.69548 16 2.80005 16H14.8C15.9046 16 16.8 15.1046 16.8 14V8H14.8V14H2.80005V2Z"
        fill="black" />
</svg>