<svg width="16" height="16" viewBox="0 0 16 16" fill="none" xmlns="http://www.w3.org/2000/svg">
	<path d="M16 6V0H10V2H14V6H16Z" fill="black" />
	<rect x="14.585" width="2" height="9.99721" rx="1" transform="rotate(45 14.585 0)" fill="black" />
	<g opacity="0.3">
		<path fill-rule="evenodd" clip-rule="evenodd"
			d="M2 1C0.895431 1 0 1.89543 0 3V6H16V5C16 3.89543 15.1046 3 14 3H8C8 1.89543 7.10457 1 6 1H2ZM0 13V7H16V13C16 14.1046 15.1046 15 14 15H2C0.89543 15 0 14.1046 0 13Z"
			fill="black" />
	</g>
</svg>