<svg width="24" height="24" viewBox="0 0 24 24" fill="none" xmlns="http://www.w3.org/2000/svg">
<path fill-rule="evenodd" clip-rule="evenodd" d="M3 6.08122L0.59375 4.15622L1.84314 2.59448L23.4049 19.8439L22.1555 21.4056L18.8887 18.7922C17.2377 20.7536 14.7644 22 12 22C7.02944 22 3 17.9705 3 13V6.08122ZM17.3263 17.5423C16.0424 19.0463 14.1326 20 12 20C8.13401 20 5 16.866 5 13V7.68122L17.3263 17.5423Z" fill="black"/>
<path d="M19 13C19 13.2454 18.9874 13.4879 18.9627 13.7268L20.7416 15.1499C20.9105 14.461 21 13.7409 21 13V5.34595L12 1.40845L6.54694 3.79416L8.31101 5.20541L12 3.59148L19 6.65398V13Z" fill="black"/>
</svg>
