<svg width="18" height="16" viewBox="0 0 18 16" fill="none" xmlns="http://www.w3.org/2000/svg">
    <mask id="path-1-inside-1_22482_12054" fill="white">
        <path
            d="M2 8C2 6.14916 2.64175 4.35557 3.81592 2.92485C4.99008 1.49413 6.624 0.514799 8.43928 0.153718C10.2546 -0.207364 12.1389 0.0721488 13.7712 0.94463C15.4035 1.81711 16.6827 3.22858 17.391 4.93853C18.0993 6.64849 18.1928 8.55113 17.6555 10.3223C17.1183 12.0934 15.9835 13.6235 14.4446 14.6518C12.9056 15.68 11.0578 16.1429 9.21586 15.9615C7.37394 15.7801 5.65189 14.9656 4.34315 13.6569L5.76867 12.2313C6.74761 13.2103 8.0357 13.8195 9.41347 13.9552C10.7912 14.0909 12.1734 13.7447 13.3245 12.9755C14.4756 12.2064 15.3245 11.0619 15.7263 9.73706C16.1282 8.41225 16.0583 6.98907 15.5285 5.71002C14.9987 4.43098 14.0418 3.3752 12.8208 2.72258C11.5999 2.06997 10.1904 1.86089 8.83258 2.13098C7.47475 2.40107 6.25258 3.13361 5.37431 4.20379C4.49603 5.27397 4.016 6.61557 4.016 8H2Z" />
    </mask>
    <path
        d="M2 8C2 6.14916 2.64175 4.35557 3.81592 2.92485C4.99008 1.49413 6.624 0.514799 8.43928 0.153718C10.2546 -0.207364 12.1389 0.0721488 13.7712 0.94463C15.4035 1.81711 16.6827 3.22858 17.391 4.93853C18.0993 6.64849 18.1928 8.55113 17.6555 10.3223C17.1183 12.0934 15.9835 13.6235 14.4446 14.6518C12.9056 15.68 11.0578 16.1429 9.21586 15.9615C7.37394 15.7801 5.65189 14.9656 4.34315 13.6569L5.76867 12.2313C6.74761 13.2103 8.0357 13.8195 9.41347 13.9552C10.7912 14.0909 12.1734 13.7447 13.3245 12.9755C14.4756 12.2064 15.3245 11.0619 15.7263 9.73706C16.1282 8.41225 16.0583 6.98907 15.5285 5.71002C14.9987 4.43098 14.0418 3.3752 12.8208 2.72258C11.5999 2.06997 10.1904 1.86089 8.83258 2.13098C7.47475 2.40107 6.25258 3.13361 5.37431 4.20379C4.49603 5.27397 4.016 6.61557 4.016 8H2Z"
        stroke="black" stroke-width="4" mask="url(#path-1-inside-1_22482_12054)" />
    <path fill-rule="evenodd" clip-rule="evenodd"
        d="M12.707 5.29298C12.3165 4.90245 11.6833 4.90245 11.2928 5.29297L10 6.5858L8.71108 5.29688C8.32056 4.90636 7.68739 4.90636 7.29687 5.29688C6.90634 5.68741 6.90634 6.32057 7.29687 6.71109L8.58579 8.00001L7.29688 9.28892C6.90636 9.67944 6.90636 10.3126 7.29688 10.7031C7.68741 11.0937 8.32057 11.0937 8.71109 10.7031L10 9.41423L11.2909 10.7051C11.6814 11.0956 12.3145 11.0956 12.7051 10.7051C13.0956 10.3146 13.0956 9.6814 12.7051 9.29087L11.4142 8.00001L12.707 6.70719C13.0976 6.31666 13.0976 5.6835 12.707 5.29298Z"
        fill="black" />
    <path d="M6 8L3 12L0 8L6 8Z" fill="black" />
</svg>