<svg width="16" height="16" viewBox="0 0 16 16" fill="none" xmlns="http://www.w3.org/2000/svg">
<mask id="path-1-inside-1_22826_209" fill="white">
<path fill-rule="evenodd" clip-rule="evenodd" d="M1.72561 9.17073C1.44273 9.49402 1.67231 9.99998 2.10189 9.99998H5.00001V14H11V9.99998H13.8981C14.3277 9.99998 14.5573 9.49402 14.2744 9.17073L8.3763 2.43003C8.17709 2.20236 7.82293 2.20236 7.62372 2.43002L1.72561 9.17073Z"/>
</mask>
<path fill-rule="evenodd" clip-rule="evenodd" d="M1.72561 9.17073C1.44273 9.49402 1.67231 9.99998 2.10189 9.99998H5.00001V14H11V9.99998H13.8981C14.3277 9.99998 14.5573 9.49402 14.2744 9.17073L8.3763 2.43003C8.17709 2.20236 7.82293 2.20236 7.62372 2.43002L1.72561 9.17073Z" fill="black"/>
<path d="M1.72561 9.17073L2.85447 10.1585L2.85447 10.1585L1.72561 9.17073ZM5.00001 9.99998H6.50001V8.49998H5.00001V9.99998ZM5.00001 14H3.50001V15.5H5.00001V14ZM11 14V15.5H12.5V14H11ZM11 9.99998V8.49998H9.50001V9.99998H11ZM14.2744 9.17073L15.4033 8.18297L15.4033 8.18297L14.2744 9.17073ZM8.3763 2.43003L7.24743 3.41778L7.24743 3.41778L8.3763 2.43003ZM7.62372 2.43002L8.75259 3.41778L8.75259 3.41778L7.62372 2.43002ZM2.10189 8.49998C2.96106 8.49998 3.42023 9.51191 2.85447 10.1585L0.596742 8.18297C-0.534777 9.47614 0.383573 11.5 2.10189 11.5V8.49998ZM5.00001 8.49998H2.10189V11.5H5.00001V8.49998ZM6.50001 14V9.99998H3.50001V14H6.50001ZM11 12.5H5.00001V15.5H11V12.5ZM9.50001 9.99998V14H12.5V9.99998H9.50001ZM13.8981 8.49998H11V11.5H13.8981V8.49998ZM13.1456 10.1585C12.5798 9.5119 13.039 8.49998 13.8981 8.49998V11.5C15.6164 11.5 16.5348 9.47615 15.4033 8.18297L13.1456 10.1585ZM7.24743 3.41778L13.1456 10.1585L15.4033 8.18297L9.50516 1.44227L7.24743 3.41778ZM8.75259 3.41778C8.35417 3.87311 7.64584 3.87311 7.24743 3.41778L9.50516 1.44227C8.70834 0.531616 7.29168 0.531611 6.49486 1.44227L8.75259 3.41778ZM2.85447 10.1585L8.75259 3.41778L6.49486 1.44227L0.596741 8.18297L2.85447 10.1585Z" fill="black" mask="url(#path-1-inside-1_22826_209)"/>
</svg>
