<?xml version="1.0" encoding="UTF-8"?>
<svg x="0px" y="0px" width="16px" height="16px" 
    viewBox="0 0 40 40"
    class="h-8 self-center mr-8 fill-current content-extrastrong" 
    xmlns="http://www.w3.org/2000/svg"
>
    <g>
        <circle cx="20" cy="20" r="20" fill="white"></circle>
        <path d="M20.0519 0C8.93506 0 0 8.93506 0 20.0519C0 31.1688 8.93506 40.1039 20.0519 40.1039C31.0649 40.1039 40.1039 31.1688 40.1039 20.0519C40.1039 8.93506 31.0649 0 20.0519 0ZM20.0519 36.0519C11.1169 36.0519 3.94805 28.8831 3.94805 19.9481C3.94805 11.013 11.1169 3.84416 20.0519 3.84416C28.987 3.84416 36.1558 11.013 36.1558 19.9481C36.0519 28.8831 28.8831 36.0519 20.0519 36.0519Z"></path>
        <path d="M27.1169 17.7662C29.4026 18.8051 30.3377 21.4025 29.5065 23.6882C28.1558 27.6363 24.3117 30.5454 19.9481 30.5454C14.3377 30.5454 9.76623 25.974 9.76623 20.3636C9.76623 20.3636 11.3247 22.4415 14.3377 22.4415C17.3506 22.4415 18.7013 21.2986 19.9481 20.3636C21.1948 19.4285 22.026 17.3506 25.1429 17.3506C25.8701 17.3506 26.5974 17.5584 27.1169 17.7662Z"></path>
    </g>
</svg>
